<?xml version="1.0" standalone="no"?><!DOCTYPE svg PUBLIC "-//W3C//DTD SVG 1.1//EN" "http://www.w3.org/Graphics/SVG/1.1/DTD/svg11.dtd"><svg class="icon" width="200px" height="200.00px" viewBox="0 0 1024 1024" version="1.1" xmlns="http://www.w3.org/2000/svg"><path fill="#2c2c2c" d="M942.5 874.7H149c-17.5 0-31.7-14.2-31.7-31.7V211.1c0-17.5 14.2-31.7 31.7-31.7s31.7 14.2 31.7 31.7v600.3h761.9c17.5 0 31.7 14.2 31.7 31.7s-14.3 31.6-31.8 31.6z"  /><path fill="#2c2c2c" d="M384.6 778.3H267.9c-17.5 0-31.7-14.2-31.7-31.7v-384c0-17.5 14.2-31.7 31.7-31.7h116.7c17.5 0 31.7 14.2 31.7 31.7v384c0 17.5-14.2 31.7-31.7 31.7z m-85-63.3H353V394.4h-53.4V715zM612 778.3H495.2c-17.5 0-31.7-14.2-31.7-31.7V220.2c0-17.5 14.2-31.7 31.7-31.7H612c17.5 0 31.7 14.2 31.7 31.7v526.4c-0.1 17.5-14.2 31.7-31.7 31.7zM526.9 715h53.4V251.9h-53.4V715zM839.3 778.3H722.6c-17.5 0-31.7-14.2-31.7-31.7V450c0-17.5 14.2-31.7 31.7-31.7h116.7c17.5 0 31.7 14.2 31.7 31.7v296.7c0 17.4-14.2 31.6-31.7 31.6zM754.2 715h53.4V481.7h-53.4V715zM222.1 258.5c-8.1 0-16.2-3.1-22.4-9.3L151 200.5l-47.2 47.2c-12.4 12.4-32.4 12.4-44.8 0-12.4-12.4-12.4-32.4 0-44.8l69.6-69.6c12.4-12.4 32.4-12.4 44.8 0l71.1 71.1c12.4 12.4 12.4 32.4 0 44.8-6.2 6.2-14.3 9.3-22.4 9.3z"  /></svg>