<?xml version="1.0" standalone="no"?><!DOCTYPE svg PUBLIC "-//W3C//DTD SVG 1.1//EN" "http://www.w3.org/Graphics/SVG/1.1/DTD/svg11.dtd"><svg class="icon" width="200px" height="200.00px" viewBox="0 0 1024 1024" version="1.1" xmlns="http://www.w3.org/2000/svg"><path fill="#2c2c2c" d="M523.015603 1023.998574a121.560879 121.560879 0 0 1-86.693352-35.81846L31.700446 583.716798a100.164896 100.164896 0 0 1-29.161932-70.685987L0.002694 118.710776A117.915638 117.915638 0 0 1 118.710776 0.002694l394.320035 2.53582A99.530941 99.530941 0 0 1 583.716798 31.700446l404.463316 404.938783a122.194834 122.194834 0 0 1 0 173.228214L610.025932 988.180114A122.194834 122.194834 0 0 1 523.015603 1023.998574zM117.918332 95.09595a22.663893 22.663893 0 0 0-15.848876 6.656528 23.139359 23.139359 0 0 0-6.656528 15.848876l2.53582 394.320036a5.705595 5.705595 0 0 0 1.743376 4.120707l404.146339 404.938783a27.418556 27.418556 0 0 0 38.829746 0l378.312671-378.312671a27.418556 27.418556 0 0 0 0-38.829746L516.517564 99.375147a5.705595 5.705595 0 0 0-4.120708-1.743376L118.076821 95.09595zM332.829091 484.819812a152.14921 152.14921 0 1 1 107.613868-44.535342A151.832232 151.832232 0 0 1 332.829091 484.819812z m0-209.205164a57.055954 57.055954 0 1 0 40.414633 16.64132A57.372931 57.372931 0 0 0 332.829091 275.614648zM375.462567 709.873851a47.546628 47.546628 0 0 1-33.599617-81.146245l239.951983-239.951983A47.546628 47.546628 0 0 1 649.806611 455.974857L409.062184 695.92684a47.546628 47.546628 0 0 1-33.599617 13.947011zM479.90666 814.476433a47.546628 47.546628 0 0 1-33.599617-81.146246l147.870013-148.028501a47.546628 47.546628 0 0 1 67.199234 67.357723l-147.870013 147.870013a47.546628 47.546628 0 0 1-33.599617 13.947011z" /></svg>