<?xml version="1.0" standalone="no"?><!DOCTYPE svg PUBLIC "-//W3C//DTD SVG 1.1//EN" "http://www.w3.org/Graphics/SVG/1.1/DTD/svg11.dtd"><svg class="icon" width="200px" height="200.00px" viewBox="0 0 1024 1024" version="1.1" xmlns="http://www.w3.org/2000/svg"><path fill="#2c2c2c" d="M883.804 246.032c-7.274 7.274-27.391 22.947-34.043 29.599 44.117 64.68 69.974 142.806 69.974 227.009 0 222.864-180.66 403.514-403.53 403.514-222.872 0-403.532-180.65-403.532-403.514 0-222.861 180.66-403.513 403.532-403.513 111.711 0 212.784 45.417 285.846 118.764 8.459-8.458 24.012-25.305 31.066-32.36-81.13-81.079-193.158-131.239-316.912-131.239-247.609 0-448.368 200.707-448.368 448.348 0 247.6 200.76 448.35 448.368 448.35 247.607 0 448.365-200.75 448.365-448.35 0.001-95.468-29.906-183.906-80.765-256.608zM647.413 240.965l-84.113 154.977c-22.412 41.965-36.15 69.883-41.162 83.751h-1.431c-14.765-33.643-56.554-113.235-125.276-238.729h-79.103l147.11 252.688-120.624 0.001v55.835h141.382v76.949h-141.382v56.553h141.382v112.027h70.155v-112.027h136.373v-56.551h-136.374v-76.951h136.373v-55.834h-117.045l148.541-252.689h-74.807z" /></svg>